<svg width="1024" height="1024" viewBox="0 0 1024 1024" xmlns="http://www.w3.org/2000/svg">
  
  <circle cx="512" cy="512" r="510" fill="#FFFFFF" stroke="#E8E8EA" stroke-width="4"/>
  <g transform="translate(286.72 286.72) scale(18.773333333333333)">
    <path fill="#2C4A6E" d="M19,11C19.5,11 20,11.5 20,12V17.5C20,19.43 18.43,21 16.5,21C14.57,21 13,19.43 13,17.5V12H11V17.5C11,19.43 9.43,21 7.5,21C5.57,21 4,19.43 4,17.5V12C4,11.5 4.5,11 5,11C5.55,11 6,11.45 6,12V17.5C6,18.33 6.67,19 7.5,19C8.33,19 9,18.33 9,17.5V12H15V17.5C15,18.33 15.67,19 16.5,19C17.33,19 18,18.33 18,17.5V12C18,11.45 18.45,11 19,11M12,10A3,3 0 0,0 15,7V5A3,3 0 0,0 12,2A3,3 0 0,0 9,5V7A3,3 0 0,0 12,10Z"/>
  </g>
</svg>